#!OML:ASF X:\für Bonn\!DataBase\2005_08_11_Bastian_Final\c3d\Bastian.ASF
:FULLY-SPECIFIED
:DEGREES
124
root -4.29984 17.3769 1.39027 897.822 40.6075 -173.808
lowerback 20.2612 -2.85281 -0.751961
upperback 15.9185 -1.21245 3.3672
thorax 6.24771 0.213357 4.35791
lowerneck -17.0845 -12.1938 -21.2575
upperneck -6.49626 -12.4464 32.5417
head 5.12154 -4.48488 13.217
rclavicle -3.598e-014 6.0033e-014
rhumerus -24.948 4.95611 -80.6618
rradius 36.1517
rwrist 0.731916
rhand -13.5288 6.8069
rfingers 7.12502
rthumb 12.5834 -22.7941
lclavicle -3.598e-014 6.0033e-014
lhumerus -5.48227 -29.0791 91.1115
lradius 57.5967
lwrist 19.0241
lhand -15.125 -11.7197
lfingers 7.12502
lthumb 11.0442 17.9698
rfemur -31.5504 -3.12482 23.062
rtibia 76.6463
rfoot -3.23341 -0.0537281
rtoes -13.9894
lfemur -4.62895 -2.00668 -17.5103
ltibia 36.07
lfoot -14.9058 -10.3922
ltoes 8.93255
125
root -4.26319 17.3834 1.32828 897.798 40.8646 -173.747
lowerback 20.2194 -2.96421 -0.593114
upperback 15.9271 -1.34273 3.39063
thorax 6.28323 0.157739 4.31188
lowerneck -17.3762 -12.1324 -21.1788
upperneck -6.1975 -12.3855 32.4185
head 5.21564 -4.42998 13.1628
rclavicle -4.45278e-014 1.88845e-014
rhumerus -25.0607 4.92378 -80.6856
rradius 35.988
rwrist 0.666416
rhand -13.4225 6.75608
rfingers 7.12502
rthumb 12.6859 -22.8386
lclavicle -4.45278e-014 1.88845e-014
lhumerus -5.31457 -29.1868 91.1042
lradius 57.9222
lwrist 18.9923
lhand -15.2156 -11.9461
lfingers 7.12502
lthumb 10.9568 17.748
rfemur -31.9472 -2.8724 22.9346
rtibia 75.4763
rfoot -2.94618 0.241646
rtoes -14.3968
lfemur -3.99655 -1.78648 -17.4933
ltibia 35.5874
lfoot -14.9784 -10.4112
ltoes 9.23728
126
root -4.22681 17.3879 1.26627 897.754 41.1203 -173.719
lowerback 20.1828 -3.08087 -0.457963
upperback 15.9419 -1.48192 3.40572
thorax 6.32474 0.0964018 4.2716
lowerneck -17.6424 -12.0733 -21.1143
upperneck -5.94462 -12.3189 32.3034
head 5.29327 -4.37533 13.1161
rclavicle 8.36883e-014 -1.70955e-014
rhumerus -25.1517 4.90489 -80.6972
rradius 35.827
rwrist 0.629719
rhand -13.3323 6.70653
rfingers 7.12502
rthumb 12.7729 -22.8828
lclavicle 8.36883e-014 -1.70955e-014
lhumerus -5.12449 -29.2957 91.0637
lradius 58.1867
lwrist 18.9992
lhand -15.3822 -12.3197
lfingers 7.12502
lthumb 10.7961 17.3828
rfemur -32.3043 -2.62846 22.7764
rtibia 74.2603
rfoot -2.5813 0.515091
rtoes -15.1354
lfemur -3.3753 -1.57772 -17.512
ltibia 35.1255
lfoot -15.0769 -10.4292
ltoes 9.51839
127
root -4.18915 17.392 1.20495 897.691 41.3818 -173.694
lowerback 20.1525 -3.181 -0.334449
upperback 15.9504 -1.60236 3.41592
thorax 6.35399 0.0435556 4.22962
lowerneck -17.8039 -12.0012 -21.0803
upperneck -5.73125 -12.2409 32.2168
head 5.34551 -4.32492 13.0911
rclavicle -9.58142e-014 6.16232e-014
rhumerus -25.2833 4.82168 -80.725
rradius 35.6754
rwrist 0.63051
rhand -13.2064 6.65645
rfingers 7.12502
rthumb 12.8943 -22.9252
lclavicle -9.58142e-014 6.16232e-014
lhumerus -4.95308 -29.3578 91.0696
lradius 58.3777
lwrist 18.9706
lhand -15.4982 -12.7493
lfingers 7.12502
lthumb 10.6842 16.9591
rfemur -32.5946 -2.35977 22.6217
rtibia 72.9912
rfoot -2.16439 0.769228
rtoes -15.9902
lfemur -2.74306 -1.32123 -17.5217
ltibia 34.6796
lfoot -15.2037 -10.4484
ltoes 9.44678
128
root -4.15226 17.3954 1.14493 897.661 41.6487 -173.663
lowerback 20.1108 -3.27418 -0.209677
upperback 15.9656 -1.71304 3.42488
thorax 6.39559 -0.00401537 4.18411
lowerneck -18.0186 -11.9472 -21.0345
upperneck -5.52294 -12.1791 32.1552
head 5.41245 -4.27574 13.0703
rclavicle -3.93594e-014 -2.80286e-014
rhumerus -25.3696 4.80708 -80.7575
rradius 35.5207
rwrist 0.55377
rhand -13.1356 6.58026
rfingers 7.12502
rthumb 12.9625 -22.9971
lclavicle -3.93594e-014 -2.80286e-014
lhumerus -4.75796 -29.4652 91.0151
lradius 58.5659
lwrist 18.9674
lhand -15.6631 -13.1582
lfingers 7.12502
lthumb 10.5252 16.5583
rfemur -32.8936 -2.09959 22.4691
rtibia 71.6799
rfoot -1.68475 1.07067
rtoes -16.9647
lfemur -2.15405 -1.08273 -17.5217
ltibia 34.2425
lfoot -15.3221 -10.4591
ltoes 9.5962
129
root -4.11409 17.3991 1.08455 897.615 41.8925 -173.634
lowerback 20.089 -3.36576 -0.127986
upperback 15.9774 -1.82631 3.4612
thorax 6.4273 -0.0578484 4.19346
lowerneck -18.2246 -11.8786 -20.9605
upperneck -5.31677 -12.1004 32.0364
head 5.46305 -4.22219 13.0237
rclavicle 3.24019e-014 -1.17283e-014
rhumerus -25.4527 4.7763 -80.7358
rradius 35.327
rwrist 0.570252
rhand -13.0558 6.57971
rfingers 7.12502
rthumb 13.0394 -22.9927
lclavicle 3.24019e-014 -1.17283e-014
lhumerus -4.59044 -29.502 91.0303
lradius 58.7073
lwrist 18.9352
lhand -15.7994 -13.5319
lfingers 7.12502
lthumb 10.3937 16.1912
rfemur -33.1165 -1.86467 22.3202
rtibia 70.3303
rfoot -1.16098 1.3568
rtoes -17.9987
lfemur -1.55057 -0.81518 -17.5114
ltibia 33.8041
lfoot -15.4262 -10.5235
ltoes 9.62386
